<?xml version="1.0" standalone="no"?>
<!DOCTYPE svg PUBLIC "-//W3C//DTD SVG 20010904//EN"
 "http://www.w3.org/TR/2001/REC-SVG-20010904/DTD/svg10.dtd">
<svg version="1.0" xmlns="http://www.w3.org/2000/svg"
 width="426.000000pt" height="426.000000pt" viewBox="0 0 426.000000 426.000000"
 preserveAspectRatio="xMidYMid meet">
<metadata>
Created by potrace 1.14, written by Peter Selinger 2001-2017
</metadata>
<g transform="translate(0.000000,426.000000) scale(0.100000,-0.100000)"
fill="#000000" stroke="none">
<path d="M1482 2933 c-19 -13 -25 -14 -32 -4 -5 9 -9 10 -11 2 -2 -6 -17 -14
-33 -17 -16 -3 -37 -9 -46 -14 -10 -5 -20 -6 -24 -3 -3 3 -6 0 -6 -7 0 -7 -3
-10 -6 -7 -4 3 -15 -5 -26 -18 -11 -14 -23 -23 -28 -20 -4 3 -6 -5 -3 -17 4
-19 3 -20 -6 -8 -19 26 -12 -4 9 -38 11 -18 33 -40 50 -50 l30 -19 -54 -13
c-29 -7 -59 -9 -66 -5 -9 5 -11 4 -6 -3 4 -8 -1 -12 -13 -13 -12 -1 -25 -3
-31 -4 -5 -1 -17 -3 -26 -4 -9 0 -31 -16 -50 -35 l-34 -34 -21 29 c-11 16 -27
29 -35 29 -9 0 -12 5 -8 12 4 7 3 8 -5 4 -6 -4 -9 -11 -7 -15 3 -4 -8 -15 -25
-25 -33 -20 -36 -32 -13 -65 14 -19 14 -25 3 -33 -11 -8 -10 -9 3 -4 17 5 43
-24 33 -38 -3 -3 -2 -4 2 -1 6 5 40 -37 34 -44 -1 -2 1 -7 6 -10 25 -17 56
-80 33 -66 -13 8 -13 2 6 -44 18 -45 16 -107 -3 -103 -13 2 -17 -15 -14 -50 2
-17 -35 -44 -54 -40 -5 1 -1 -5 10 -13 37 -26 60 -47 45 -39 -13 7 -13 5 -1
-9 11 -14 11 -20 0 -34 -12 -16 -12 -17 2 -6 23 19 29 7 29 -59 0 -54 2 -59
19 -53 11 3 22 1 26 -5 3 -5 -1 -10 -9 -10 -13 0 -12 -4 5 -21 16 -16 18 -23
9 -34 -10 -12 -8 -13 9 -10 12 2 21 0 21 -6 0 -9 -16 -13 -35 -9 -5 1 -6 -2
-2 -6 15 -15 36 -12 42 5 10 32 42 20 35 -14 -1 -5 2 -7 6 -2 4 4 9 16 11 27
2 14 -2 18 -17 15 -11 -2 -20 1 -20 7 0 5 7 7 15 4 9 -3 18 1 21 9 4 8 13 15
21 15 8 0 11 5 7 13 -4 7 -3 9 2 4 5 -5 10 -13 10 -18 1 -5 2 -12 3 -15 0 -4
9 0 18 7 9 8 14 9 10 3 -8 -13 51 -13 72 0 10 7 12 5 6 -4 -6 -10 -4 -12 10
-7 25 10 44 -10 39 -39 -3 -15 -1 -23 5 -20 11 7 9 -13 -3 -33 -6 -10 -5 -12
2 -7 7 4 12 3 12 -3 0 -5 -5 -13 -10 -16 -6 -4 -7 -12 -3 -18 4 -7 8 -33 8
-59 l1 -48 -65 -1 c-482 -6 -591 -15 -591 -49 0 -5 -7 -10 -15 -10 -32 0 -145
-82 -145 -105 0 -10 129 -75 150 -75 4 0 21 -7 36 -15 16 -8 37 -15 47 -15 9
0 17 -4 17 -9 0 -5 9 -7 20 -4 20 5 80 -17 80 -30 0 -4 8 -7 18 -5 10 2 16 -2
14 -10 -1 -8 2 -11 8 -7 7 4 6 13 -2 28 -10 19 -9 20 4 10 11 -10 17 -10 28 0
12 10 12 9 3 -3 -8 -11 -7 -18 4 -29 12 -11 14 -10 11 5 -2 15 5 18 45 19 26
1 47 -2 47 -6 0 -9 20 -6 38 4 7 5 9 13 6 19 -4 7 -2 8 5 4 8 -6 9 -12 2 -20
-6 -7 -9 -15 -6 -17 2 -3 -11 -5 -30 -5 -18 0 -32 3 -30 6 2 3 -10 5 -28 5
-17 0 -32 -6 -35 -13 -4 -14 14 -16 23 -2 4 6 13 7 23 2 9 -5 28 -8 42 -7 14
1 31 -4 39 -9 11 -8 13 -8 8 0 -3 6 -1 19 6 28 12 16 15 16 42 -6 16 -12 25
-17 21 -9 -6 9 -5 12 5 9 8 -3 13 -11 11 -17 -1 -7 2 -10 8 -6 6 3 7 12 3 18
-20 32 -8 36 18 6 25 -28 27 -29 13 -6 -18 30 -9 37 13 10 8 -10 11 -12 7 -4
-5 10 -1 11 15 6 13 -4 29 -1 38 7 15 11 16 11 10 -5 -5 -15 -4 -16 13 -7 44
23 69 30 64 16 -3 -8 0 -17 6 -21 6 -3 9 -2 8 3 -2 6 2 9 7 8 6 0 9 -7 9 -13
-1 -7 2 -10 7 -7 5 3 7 17 3 32 l-5 27 15 -25 c8 -14 15 -20 16 -14 0 7 7 15
16 18 14 5 15 4 4 -9 -8 -9 -8 -15 -2 -15 6 0 18 10 26 22 9 12 16 17 16 10 0
-7 5 -10 10 -7 6 4 8 11 5 16 -4 5 -2 9 2 9 5 0 13 -8 20 -19 10 -17 9 -18
-18 -16 -16 1 -26 -1 -23 -6 3 -5 0 -9 -7 -9 -7 0 -9 -3 -6 -6 4 -4 12 -2 19
3 7 6 21 9 30 8 10 -2 20 1 24 6 3 5 10 6 16 3 6 -4 5 -10 -3 -16 -11 -8 -11
-9 1 -5 8 2 15 10 16 18 2 29 4 31 19 19 8 -7 21 -10 30 -7 8 4 17 2 20 -4 4
-5 11 -7 16 -4 5 4 13 -4 18 -17 10 -23 10 -23 15 25 0 6 10 12 21 12 11 -1
24 4 28 10 5 6 7 4 4 -5 -2 -8 -13 -14 -25 -14 -12 1 -19 -2 -17 -7 3 -4 17
-6 31 -3 18 3 23 1 18 -7 -4 -8 -3 -9 5 -5 6 4 9 13 5 19 -3 7 2 3 10 -7 9
-11 16 -14 16 -7 0 7 5 9 11 5 17 -10 69 -13 63 -3 -10 16 9 9 22 -8 13 -17
14 -17 8 1 -6 16 -4 17 13 8 11 -6 24 -8 27 -4 13 12 126 11 119 -2 -4 -7 -1
-6 7 1 9 8 19 9 31 3 12 -7 20 -6 25 2 5 7 3 8 -6 3 -8 -5 -11 -4 -6 3 4 6 13
9 21 6 8 -4 12 -11 8 -18 -4 -6 1 -5 10 3 13 11 17 11 17 1 0 -8 3 -10 7 -7 3
4 13 1 22 -6 14 -11 14 -10 2 6 -12 15 -11 17 18 17 17 0 31 -5 31 -12 0 -6 6
-3 14 7 8 11 12 24 8 30 -3 5 4 2 15 -7 20 -18 79 -25 69 -9 -4 5 2 8 11 6 10
-1 24 2 31 8 10 8 12 7 10 -3 -2 -7 3 -15 11 -18 9 -3 11 0 6 8 -6 9 -3 9 15
0 18 -10 24 -9 36 7 14 17 14 17 5 -4 -8 -16 -7 -22 5 -27 8 -3 12 -2 9 4 -3
6 -1 10 5 10 6 0 8 6 4 13 -6 10 -4 10 7 0 7 -7 17 -13 22 -13 4 0 5 6 1 13
-4 6 -4 9 1 5 4 -4 15 -2 24 4 9 7 5 0 -9 -15 l-25 -28 25 4 c14 3 34 9 44 13
13 5 17 4 12 -4 -5 -8 -2 -10 9 -6 11 5 14 2 9 -12 -5 -15 -4 -16 4 -4 7 9 8
18 1 26 -8 9 -5 11 12 7 13 -4 20 -2 16 3 -3 6 3 11 14 11 19 2 19 1 -1 -15
l-21 -17 23 -14 c20 -12 21 -12 12 0 -8 11 -6 18 8 32 19 18 26 9 7 -10 -8 -8
-7 -13 2 -18 8 -5 10 -4 5 3 -9 15 -1 15 26 1 15 -8 19 -8 14 0 -4 6 0 11 9
11 9 0 13 4 10 10 -3 6 1 7 10 4 12 -5 13 -9 4 -20 -7 -8 -9 -17 -5 -21 3 -3
6 -1 6 5 0 7 9 12 21 12 13 0 18 -4 13 -12 -4 -7 -3 -8 5 -4 6 4 9 12 6 17 -8
12 12 11 37 -2 15 -8 19 -8 14 0 -9 15 7 14 22 -1 14 -14 45 -20 37 -8 -3 5
24 7 60 6 36 -2 69 2 72 7 3 6 12 2 20 -8 7 -11 13 -14 13 -8 0 7 -7 19 -16
27 -8 9 -11 16 -5 16 5 0 13 -4 16 -10 10 -17 25 -11 18 7 -5 14 -3 13 14 -3
11 -10 18 -26 15 -34 -3 -13 -3 -13 6 0 7 9 7 19 2 26 -11 12 -3 24 14 24 6 0
4 -5 -4 -10 -13 -8 -12 -10 3 -10 9 0 17 6 17 13 0 9 3 8 9 -2 5 -8 11 -9 15
-3 8 14 57 12 50 -2 -3 -6 0 -4 8 4 7 9 32 21 56 28 23 7 42 17 42 22 0 6 9
10 21 10 24 0 118 38 137 55 10 9 9 17 -8 38 -12 15 -30 27 -41 27 -10 0 -19
4 -19 9 0 12 -75 55 -120 69 -60 19 -184 27 -508 31 -63 1 -63 1 -60 29 2 21
-2 28 -17 30 -25 3 -51 39 -30 39 8 0 13 -5 12 -10 -1 -5 5 -12 13 -14 9 -3
11 -1 5 4 -13 11 -20 57 -7 49 11 -7 25 39 28 89 3 47 3 48 17 36 8 -6 16 -8
20 -5 3 3 10 -3 16 -14 7 -14 19 -19 41 -17 16 1 30 -2 30 -7 0 -5 5 -6 10 -3
6 3 10 11 10 16 0 6 -4 7 -10 4 -5 -3 -10 -2 -10 4 0 5 9 9 20 8 23 -1 23 -2
10 -27 -7 -13 -7 -21 0 -25 6 -4 10 -3 9 2 -3 20 2 34 11 28 6 -4 7 -11 4 -17
-4 -7 -2 -8 4 -4 16 10 15 -7 0 -23 -11 -11 -10 -13 0 -7 7 4 21 24 33 44 11
20 18 29 15 19 -3 -10 -2 -15 3 -12 5 3 12 1 16 -5 3 -5 -1 -10 -9 -10 -8 0
-18 -4 -21 -10 -4 -6 2 -7 14 -2 21 8 24 13 14 38 -3 9 2 23 12 32 16 16 17
16 6 -5 -7 -14 -8 -24 -1 -28 11 -7 11 -8 14 25 2 14 -4 30 -13 37 -13 10 -10
11 17 7 30 -5 32 -4 28 20 -3 14 0 28 5 32 5 3 6 11 2 17 -11 19 -10 107 1
107 7 0 8 3 1 8 -6 4 -11 54 -11 112 -1 89 -5 111 -23 142 l-22 37 23 12 c33
17 33 17 5 40 -16 12 -27 30 -27 44 0 34 -10 55 -26 55 -8 0 -14 7 -14 16 0 9
5 12 13 8 7 -5 6 0 -3 11 -10 13 -11 16 -2 11 9 -5 13 -3 11 5 -3 26 1 40 10
35 4 -3 8 4 7 17 -1 14 4 21 14 19 11 -2 11 1 -2 11 -10 8 -18 22 -18 31 0 9
-3 15 -7 15 -19 -3 -34 2 -29 9 2 4 -4 9 -15 9 -23 2 -51 28 -41 38 4 5 2 6
-3 2 -18 -10 -34 7 -37 40 -1 17 -6 29 -10 27 -4 -3 -8 -1 -8 5 0 12 -37 6
-56 -10 -8 -6 -21 -8 -31 -4 -10 5 -26 7 -35 6 -10 -1 -18 3 -18 9 0 7 -6 10
-14 7 -7 -3 -18 -1 -24 5 -6 6 -22 12 -36 13 -20 3 -30 -5 -48 -33 -12 -20
-23 -41 -24 -47 -1 -5 -16 -35 -32 -65 -26 -48 -33 -55 -58 -53 -21 2 -25 0
-14 -7 8 -5 17 -7 21 -4 4 2 10 0 14 -6 8 -12 -15 -13 -34 -1 -17 11 -21 72
-6 83 6 5 7 8 0 8 -6 0 -10 25 -9 55 1 59 0 60 -65 57 -32 -2 -33 -3 -35 -66
-3 -51 -11 -85 -14 -53 -3 41 -16 86 -31 110 l-17 27 -39 -39 -40 -40 -28 35
c-32 38 -51 42 -79 17 -17 -15 -19 -15 -38 2 -16 15 -25 16 -44 7 -16 -7 -27
-7 -34 0 -10 10 -52 -9 -52 -24 0 -5 -4 -8 -10 -8 -5 0 -10 9 -10 20 0 18 -7
20 -57 20 -44 0 -62 -5 -79 -21 -21 -20 -51 -19 -39 2 7 11 5 11 -112 13 -68
1 -96 6 -110 18 -19 17 -90 33 -136 31 -23 -1 -26 2 -16 13 15 18 10 17 -19
-3z m218 -167 c0 -2 -7 -7 -16 -10 -8 -3 -12 -2 -9 4 6 10 25 14 25 6z m20
-30 c-13 -13 -13 -29 0 -21 16 10 7 -18 -10 -32 -8 -6 -18 -9 -22 -7 -5 3 -8
0 -8 -5 0 -15 -22 -9 -37 9 -11 13 -12 12 -6 -4 5 -16 3 -18 -12 -12 -11 4
-16 4 -12 0 4 -4 -1 -13 -11 -21 -9 -8 -11 -12 -4 -8 8 4 12 -1 12 -15 0 -14
-4 -19 -12 -14 -10 6 -10 4 -2 -7 18 -23 25 -91 11 -108 -10 -12 -9 -13 2 -7
10 7 12 3 6 -14 -6 -17 -4 -21 6 -15 8 5 5 -2 -5 -14 -20 -22 -20 -22 0 -15
15 6 17 4 7 -6 -13 -14 -48 -6 -39 9 3 5 -3 7 -14 4 -23 -6 -27 15 -7 36 10
10 9 12 -3 9 -10 -2 -15 5 -15 24 1 14 -3 24 -7 22 -4 -3 -8 7 -8 22 0 15 -5
44 -11 63 -30 98 -32 88 25 100 68 15 68 15 90 27 23 14 99 13 86 0z m1331
-813 c13 -16 12 -17 -3 -4 -17 13 -22 21 -14 21 2 0 10 -8 17 -17z m19 -48 c7
-8 16 -13 20 -10 5 3 6 -4 3 -15 -4 -16 -8 -18 -19 -9 -8 6 -12 15 -9 19 3 5
-7 13 -22 18 -24 9 -25 11 -7 11 12 1 27 -6 34 -14z m-1890 -13 c0 -5 -7 -9
-15 -9 -8 0 -12 4 -9 9 3 4 9 8 15 8 5 0 9 -4 9 -8z m1820 -1 c0 -4 -11 -7
-25 -7 -14 0 -25 3 -25 7 0 3 11 7 25 7 14 0 25 -4 25 -7z m-1154 -187 c3 9
11 16 16 16 6 0 6 -6 -1 -14 -7 -9 -8 -17 -2 -20 5 -3 12 0 14 6 4 8 6 7 6 -4
1 -13 -7 -16 -41 -14 -24 1 -51 -2 -61 -6 -16 -8 -17 -7 -8 10 6 11 7 23 3 28
-4 5 3 0 16 -10 23 -20 31 -10 10 13 -7 8 -1 6 14 -4 25 -16 28 -16 34 -1z
m657 -13 c3 -11 -1 -22 -8 -24 -8 -4 -10 3 -7 19 5 29 8 30 15 5z m37 15 c0
-2 -7 -7 -16 -10 -8 -3 -12 -2 -9 4 6 10 25 14 25 6z m-810 -10 c0 -2 -7 -7
-16 -10 -8 -3 -12 -2 -9 4 6 10 25 14 25 6z m25 -15 c-3 -6 -11 -11 -16 -11
-5 0 -4 6 3 14 14 16 24 13 13 -3z m694 7 c-10 -7 -8 -8 9 -5 19 5 21 3 11 -9
-6 -7 -16 -11 -22 -7 -5 3 -25 6 -43 5 -18 -1 -36 2 -38 7 -3 4 6 6 19 3 14
-2 25 0 25 6 0 5 12 10 26 10 19 0 23 -3 13 -10z m117 -16 c-10 -2 -22 0 -28
6 -6 6 0 7 19 4 21 -5 23 -7 9 -10z m42 -7 c-3 -3 -9 2 -12 12 -6 14 -5 15 5
6 7 -7 10 -15 7 -18z m-698 11 c0 -3 -4 -8 -10 -11 -5 -3 -10 -1 -10 4 0 6 5
11 10 11 6 0 10 -2 10 -4z m-220 -296 c0 -5 -5 -10 -11 -10 -5 0 -7 5 -4 10 3
6 8 10 11 10 2 0 4 -4 4 -10z m123 -10 c3 -11 1 -18 -4 -14 -5 3 -9 12 -9 20
0 20 7 17 13 -6z m182 6 c7 3 16 0 21 -7 4 -8 3 -10 -5 -5 -6 4 -18 2 -26 -4
-13 -10 -15 -8 -14 11 0 13 3 19 5 12 3 -7 11 -10 19 -7z m49 3 c-2 -4 0 -10
6 -14 5 -3 10 2 10 11 0 10 3 15 6 11 12 -11 -5 -37 -20 -31 -20 7 -28 31 -10
31 7 0 11 -4 8 -8z m150 -5 c3 -8 2 -12 -4 -9 -6 3 -10 10 -10 16 0 14 7 11
14 -7z m30 1 c3 -8 1 -15 -4 -15 -6 0 -10 7 -10 15 0 8 2 15 4 15 2 0 6 -7 10
-15z m50 -1 c3 -8 2 -12 -4 -9 -6 3 -10 10 -10 16 0 14 7 11 14 -7z m30 1 c3
-8 1 -15 -4 -15 -6 0 -10 7 -10 15 0 8 2 15 4 15 2 0 6 -7 10 -15z m66 5 c8
-5 12 -11 10 -14 -3 -2 -14 2 -24 10 -22 15 -10 19 14 4z m500 -10 c0 -4 -7
-11 -16 -14 -13 -5 -14 -4 -6 7 7 8 8 18 4 22 -4 5 -1 5 6 1 6 -4 12 -11 12
-16z m-1880 -11 c0 -6 -4 -7 -10 -4 -5 3 -10 11 -10 16 0 6 5 7 10 4 6 -3 10
-11 10 -16z m275 11 c-3 -5 -12 -10 -18 -10 -7 0 -6 4 3 10 19 12 23 12 15 0z
m132 -12 c-3 -8 -6 -5 -6 6 -1 11 2 17 5 13 3 -3 4 -12 1 -19z m53 11 c0 -15
-18 -19 -23 -6 -3 8 1 14 9 14 8 0 14 -4 14 -8z m501 -6 c13 -15 12 -15 -7 -5
-12 6 -25 8 -29 4 -5 -4 -5 -1 -1 6 10 16 21 15 37 -5z m179 5 c0 -4 -9 -7
-20 -5 -29 5 -33 13 -5 13 14 0 25 -4 25 -8z m854 -4 c3 -8 2 -12 -4 -9 -6 3
-10 10 -10 16 0 14 7 11 14 -7z m36 6 c0 -5 -5 -10 -11 -10 -5 0 -7 5 -4 10 3
6 8 10 11 10 2 0 4 -4 4 -10z m153 -10 c3 -11 1 -18 -4 -14 -5 3 -9 12 -9 20
0 20 7 17 13 -6z m-123 -8 c0 -13 -12 -22 -22 -16 -10 6 -1 24 13 24 5 0 9 -4
9 -8z m50 -2 c0 -5 -2 -10 -4 -10 -3 0 -8 5 -11 10 -3 6 -1 10 4 10 6 0 11 -4
11 -10z m50 0 c0 -4 -7 -7 -15 -6 -23 3 -26 12 -5 13 11 1 20 -2 20 -7z"/>
<path d="M1685 2731 c-11 -5 -24 -6 -30 -3 -5 3 -6 1 -2 -4 5 -5 16 -9 24 -9
9 0 18 -6 21 -14 2 -8 0 -11 -5 -8 -5 3 -15 1 -23 -4 -11 -7 -8 -8 10 -6 19 3
25 10 25 30 1 15 1 27 0 26 0 0 -9 -4 -20 -8z"/>
<path d="M1596 2527 c3 -10 9 -15 12 -12 3 3 0 11 -7 18 -10 9 -11 8 -5 -6z"/>
<path d="M1116 1877 c3 -10 9 -15 12 -12 3 3 0 11 -7 18 -10 9 -11 8 -5 -6z"/>
<path d="M1235 1871 c-3 -5 8 -19 25 -31 17 -12 29 -16 28 -10 -2 7 3 15 11
18 10 3 11 0 5 -9 -6 -11 -5 -12 7 -2 17 14 59 13 59 -1 0 -5 2 -7 5 -4 3 3 2
13 -1 22 -5 14 -9 15 -15 4 -5 -7 -9 -8 -9 -2 0 6 -16 10 -37 9 -21 -1 -46 2
-55 7 -10 4 -19 4 -23 -1z m50 -13 c5 4 5 1 1 -6 -5 -9 -12 -9 -27 -2 -10 6
-19 13 -19 16 0 2 8 0 19 -5 10 -6 22 -7 26 -3z"/>
<path d="M2902 1857 c10 -24 13 -25 21 -12 5 9 6 19 3 22 -3 4 -6 0 -6 -7 0
-9 -5 -7 -15 6 -14 18 -14 17 -3 -9z"/>
<path d="M1390 1860 c0 -5 7 -10 16 -10 8 0 12 5 9 10 -3 6 -10 10 -16 10 -5
0 -9 -4 -9 -10z"/>
<path d="M1390 1831 c0 -6 4 -13 10 -16 6 -3 7 1 4 9 -7 18 -14 21 -14 7z"/>
<path d="M2926 1823 c-6 -14 -5 -15 5 -6 7 7 10 15 7 18 -3 3 -9 -2 -12 -12z"/>
<path d="M1330 1819 c0 -5 5 -7 10 -4 6 3 10 8 10 11 0 2 -4 4 -10 4 -5 0 -10
-5 -10 -11z"/>
<path d="M2970 1819 c0 -5 5 -7 10 -4 6 3 10 8 10 11 0 2 -4 4 -10 4 -5 0 -10
-5 -10 -11z"/>
<path d="M1724 1323 c11 -13 29 -22 40 -22 20 1 20 2 1 6 -11 3 -29 12 -40 22
-20 16 -20 16 -1 -6z"/>
<path d="M2396 1331 c-4 -7 -5 -15 -2 -18 9 -9 19 4 14 18 -4 11 -6 11 -12 0z"/>
<path d="M2497 1325 c2 -8 13 -13 24 -12 12 1 15 5 9 11 -15 15 -39 16 -33 1z"/>
<path d="M3330 1331 c0 -6 4 -13 10 -16 6 -3 7 1 4 9 -7 18 -14 21 -14 7z"/>
<path d="M2550 1326 c0 -2 7 -7 16 -10 8 -3 12 -2 9 4 -6 10 -25 14 -25 6z"/>
<path d="M1220 1316 c0 -2 8 -10 18 -17 15 -13 16 -12 3 4 -13 16 -21 21 -21
13z"/>
<path d="M1461 1311 c-8 -5 -9 -11 -3 -15 5 -3 12 1 16 9 6 17 6 18 -13 6z"/>
<path d="M3233 1305 c-3 -9 -3 -18 -1 -21 3 -3 8 4 11 16 6 23 -1 27 -10 5z"/>
<path d="M3158 1283 c7 -3 16 -2 19 1 4 3 -2 6 -13 5 -11 0 -14 -3 -6 -6z"/>
</g>
</svg>
